<svg width="41" height="40" viewBox="0 0 41 40" fill="none" xmlns="http://www.w3.org/2000/svg">
<g clip-path="url(#clip0_511_40)">
<path d="M33.9844 36.905L3.64109 33.542C2.18219 33.3804 1.13066 32.0667 1.29231 30.6078L4.08125 5.44375C4.24298 3.98485 5.5567 2.93324 7.01553 3.09497L37.3588 6.45795C38.8177 6.61967 39.8693 7.9334 39.7076 9.39222L36.9187 34.5562C36.757 36.0151 35.4433 37.0667 33.9844 36.905Z" fill="url(#paint0_linear_511_40)"/>
<path d="M39.7076 9.39232L38.608 19.3166L36.1639 6.32565L37.3593 6.45804C38.8177 6.61946 39.8691 7.93303 39.7076 9.39232Z" fill="url(#paint1_linear_511_40)"/>
<path d="M38.3332 32.2306L8.33034 37.8748C6.88783 38.1462 5.49842 37.1968 5.22705 35.7543L0.546265 10.8726C0.274893 9.43011 1.2243 8.0407 2.66681 7.76933L32.6696 2.12509C34.1121 1.85372 35.5016 2.80313 35.7729 4.24564L40.4537 29.1273C40.7251 30.5699 39.7757 31.9593 38.3332 32.2306Z" fill="url(#paint2_linear_511_40)"/>
<path d="M36.4134 7.65067V32.5918L38.3331 32.2306C39.7756 31.9592 40.725 30.5698 40.4536 29.1273L36.4134 7.65067Z" fill="url(#paint3_linear_511_40)"/>
<path d="M5.08429 34.9951L5.22711 35.7543C5.49849 37.1968 6.8879 38.1462 8.33041 37.8748L23.6383 34.9951H5.08429Z" fill="url(#paint4_linear_511_40)"/>
<path d="M33.7557 35.1503H3.22666C1.75882 35.1503 0.568939 33.9604 0.568939 32.4925V7.17442C0.568939 5.70658 1.75882 4.51669 3.22666 4.51669H33.7557C35.2235 4.51669 36.4134 5.70658 36.4134 7.17442V32.4925C36.4134 33.9604 35.2235 35.1503 33.7557 35.1503Z" fill="url(#paint5_linear_511_40)"/>
<path d="M31.267 32.653H5.71545C4.48698 32.653 3.49106 31.6571 3.49106 30.4286V9.23843C3.49106 8.00996 4.48698 7.01404 5.71545 7.01404H31.267C32.4955 7.01404 33.4914 8.00996 33.4914 9.23843V30.4286C33.4914 31.6571 32.4955 32.653 31.267 32.653Z" fill="url(#paint6_linear_511_40)"/>
<path d="M20.2701 32.653H5.71585C4.48715 32.653 3.49075 31.6574 3.49075 30.4288V26.955L7.18346 22.4666C8.40213 20.984 10.6705 20.984 11.89 22.4666L14.1893 25.2618L20.2701 32.653Z" fill="url(#paint7_linear_511_40)"/>
<path d="M33.4916 24.8431V30.4288C33.4916 31.6575 32.4952 32.653 31.2665 32.653H8.10825L14.1892 25.2619L21.6595 16.1808C22.8781 14.6991 25.1474 14.6991 26.3661 16.1808L33.4916 24.8431Z" fill="url(#paint8_linear_511_40)"/>
<path d="M11.2627 15.5402C13.0049 15.5402 14.4172 14.1279 14.4172 12.3858C14.4172 10.6436 13.0049 9.23135 11.2627 9.23135C9.52059 9.23135 8.10831 10.6436 8.10831 12.3858C8.10831 14.1279 9.52059 15.5402 11.2627 15.5402Z" fill="url(#paint9_linear_511_40)"/>
</g>
<defs>
<linearGradient id="paint0_linear_511_40" x1="10.7206" y1="7.77818" x2="33.2795" y2="35.9512" gradientUnits="userSpaceOnUse">
<stop stop-color="#FFA936"/>
<stop offset="0.4112" stop-color="#FF8548"/>
<stop offset="0.7781" stop-color="#FF6C54"/>
<stop offset="1" stop-color="#FF6359"/>
</linearGradient>
<linearGradient id="paint1_linear_511_40" x1="38.9696" y1="12.4718" x2="37.0827" y2="12.888" gradientUnits="userSpaceOnUse">
<stop stop-color="#F82814" stop-opacity="0"/>
<stop offset="1" stop-color="#C0272D"/>
</linearGradient>
<linearGradient id="paint2_linear_511_40" x1="7.57721" y1="11.1704" x2="37.3835" y2="31.5346" gradientUnits="userSpaceOnUse">
<stop stop-color="#CDEC7A"/>
<stop offset="0.2157" stop-color="#B0E995"/>
<stop offset="0.5613" stop-color="#87E4BB"/>
<stop offset="0.8347" stop-color="#6EE1D2"/>
<stop offset="1" stop-color="#65E0DB"/>
</linearGradient>
<linearGradient id="paint3_linear_511_40" x1="39.0633" y1="20.1213" x2="35.8441" y2="20.1213" gradientUnits="userSpaceOnUse">
<stop stop-color="#CDEC7A" stop-opacity="0"/>
<stop offset="0.2354" stop-color="#9AD57D" stop-opacity="0.235"/>
<stop offset="0.6035" stop-color="#51B482" stop-opacity="0.604"/>
<stop offset="0.8679" stop-color="#239F85" stop-opacity="0.868"/>
<stop offset="1" stop-color="#119786"/>
</linearGradient>
<linearGradient id="paint4_linear_511_40" x1="14.3612" y1="36.6209" x2="14.3612" y2="34.7138" gradientUnits="userSpaceOnUse">
<stop stop-color="#CDEC7A" stop-opacity="0"/>
<stop offset="0.2354" stop-color="#9AD57D" stop-opacity="0.235"/>
<stop offset="0.6035" stop-color="#51B482" stop-opacity="0.604"/>
<stop offset="0.8679" stop-color="#239F85" stop-opacity="0.868"/>
<stop offset="1" stop-color="#119786"/>
</linearGradient>
<linearGradient id="paint5_linear_511_40" x1="7.42267" y1="8.76493" x2="32.9417" y2="34.284" gradientUnits="userSpaceOnUse">
<stop stop-color="#F8F6FB"/>
<stop offset="1" stop-color="#EFDCFB"/>
</linearGradient>
<linearGradient id="paint6_linear_511_40" x1="9.34455" y1="7.93373" x2="34.2343" y2="40.3154" gradientUnits="userSpaceOnUse">
<stop stop-color="#18CEFB"/>
<stop offset="0.2969" stop-color="#2BB9F9"/>
<stop offset="0.7345" stop-color="#42A0F7"/>
<stop offset="1" stop-color="#4A97F6"/>
</linearGradient>
<linearGradient id="paint7_linear_511_40" x1="6.42848" y1="24.8258" x2="17.3326" y2="39.0122" gradientUnits="userSpaceOnUse">
<stop stop-color="#CDEC7A"/>
<stop offset="0.2154" stop-color="#B0E995" stop-opacity="0.784"/>
<stop offset="0.5604" stop-color="#87E4BB" stop-opacity="0.439"/>
<stop offset="0.8334" stop-color="#6EE1D2" stop-opacity="0.165"/>
<stop offset="0.9985" stop-color="#65E0DB" stop-opacity="0"/>
</linearGradient>
<linearGradient id="paint8_linear_511_40" x1="16.0939" y1="22.6254" x2="29.245" y2="39.735" gradientUnits="userSpaceOnUse">
<stop stop-color="#CDEC7A"/>
<stop offset="0.2157" stop-color="#B0E995"/>
<stop offset="0.5613" stop-color="#87E4BB"/>
<stop offset="0.8347" stop-color="#6EE1D2"/>
<stop offset="1" stop-color="#65E0DB"/>
</linearGradient>
<linearGradient id="paint9_linear_511_40" x1="9.69544" y1="10.3468" x2="13.9602" y2="15.8954" gradientUnits="userSpaceOnUse">
<stop stop-color="#FFD945"/>
<stop offset="0.3043" stop-color="#FFCD3E"/>
<stop offset="0.8558" stop-color="#FFAD2B"/>
<stop offset="1" stop-color="#FFA325"/>
</linearGradient>
<clipPath id="clip0_511_40">
<rect width="40" height="40" fill="white" transform="translate(0.5)"/>
</clipPath>
</defs>
</svg>
